{
  "asset": {
    "generator": "UnityGLTF",
    "version": "2.0"
  },
  "extensionsUsed": [
    "KHR_texture_transform"
  ],
  "scene": 0,
  "scenes": [
    {
      "nodes": [
        0
      ],
      "name": "Character_Skeleton_Slave_01"
    }
  ],
  "accessors": [
    {
      "bufferView": 0,
      "componentType": 5126,
      "count": 9155,
      "type": "VEC3",
      "max": [
        103.76510620117188,
        178.52085876464844,
        15.144197463989258
      ],
      "min": [
        -103.76512145996094,
        -6.4404469565394543E-28,
        -19.459463119506836
      ]
    },
    {
      "bufferView": 1,
      "componentType": 5126,
      "count": 9155,
      "type": "VEC3",
      "max": [
        0.99999940395355225,
        1.0,
        0.999997615814209
      ],
      "min": [
        -0.99999940395355225,
        -1.0,
        -0.99999845027923584
      ]
    },
    {
      "bufferView": 2,
      "componentType": 5126,
      "count": 9155,
      "type": "VEC4",
      "max": [
        0.40486201643943787,
        1.0,
        1.0,
        1.0
      ],
      "min": [
        -1.0,
        -0.40330594778060913,
        -0.40662658214569092,
        -1.0
      ]
    },
    {
      "bufferView": 3,
      "componentType": 5126,
      "count": 9155,
      "type": "VEC2",
      "max": [
        0.44764810800552368,
        0.7483329176902771
      ],
      "min": [
        0.0032612979412078857,
        0.61760711669921875
      ]
    },
    {
      "bufferView": 4,
      "componentType": 5126,
      "count": 9155,
      "type": "VEC2",
      "max": [
        1.0,
        1.0
      ],
      "min": [
        0.0,
        0.0
      ]
    },
    {
      "bufferView": 5,
      "componentType": 5123,
      "count": 12414,
      "type": "SCALAR",
      "max": [
        9154.0
      ],
      "min": [
        0.0
      ]
    },
    {
      "bufferView": 6,
      "componentType": 5126,
      "count": 73,
      "type": "SCALAR",
      "max": [
        2.4166667461395264
      ],
      "min": [
        0.0
      ]
    },
    {
      "bufferView": 7,
      "componentType": 5126,
      "count": 73,
      "type": "VEC3",
      "max": [
        0.0033758203499019146,
        0.032784458249807358,
        -0.017080912366509438
      ],
      "min": [
        0.0033758203499019146,
        -0.0078729512169957161,
        -0.017080912366509438
      ]
    },
    {
      "bufferView": 8,
      "componentType": 5126,
      "count": 73,
      "type": "SCALAR",
      "max": [
        2.4166667461395264
      ],
      "min": [
        0.0
      ]
    },
    {
      "bufferView": 9,
      "componentType": 5126,
      "count": 73,
      "type": "VEC4",
      "max": [
        0.0,
        0.091877095401287079,
        0.0,
        -0.98425686359405518
      ],
      "min": [
        0.0,
        -0.17674414813518524,
        0.0,
        -0.99999988079071045
      ]
    },
    {
      "bufferView": 10,
      "componentType": 5126,
      "count": 2,
      "type": "SCALAR",
      "max": [
        2.4166667461395264
      ],
      "min": [
        0.0
      ]
    },
    {
      "bufferView": 11,
      "componentType": 5126,
      "count": 2,
      "type": "VEC3",
      "max": [
        1.0,
        1.0,
        1.0
      ],
      "min": [
        1.0,
        1.0,
        1.0
      ]
    },
    {
      "bufferView": 12,
      "componentType": 5126,
      "count": 2,
      "type": "SCALAR",
      "max": [
        2.4166667461395264
      ],
      "min": [
        0.0
      ]
    },
    {
      "bufferView": 13,
      "componentType": 5126,
      "count": 2,
      "type": "VEC3",
      "max": [
        0.0,
        0.0,
        0.0
      ],
      "min": [
        0.0,
        0.0,
        0.0
      ]
    },
    {
      "bufferView": 14,
      "componentType": 5126,
      "count": 2,
      "type": "SCALAR",
      "max": [
        2.4166667461395264
      ],
      "min": [
        0.0
      ]
    },
    {
      "bufferView": 15,
      "componentType": 5126,
      "count": 2,
      "type": "VEC4",
      "max": [
        0.0,
        0.0,
        0.0,
        -1.0
      ],
      "min": [
        0.0,
        0.0,
        0.0,
        -1.0
      ]
    },
    {
      "bufferView": 16,
      "componentType": 5126,
      "count": 2,
      "type": "SCALAR",
      "max": [
        2.4166667461395264
      ],
      "min": [
        0.0
      ]
    },
    {
      "bufferView": 17,
      "componentType": 5126,
      "count": 2,
      "type": "VEC3",
      "max": [
        0.0099999997764825821,
        0.0099999997764825821,
        0.0099999997764825821
      ],
      "min": [
        0.0099999997764825821,
        0.0099999997764825821,
        0.0099999997764825821
      ]
    }
  ],
  "animations": [
    {
      "channels": [
        {
          "sampler": 0,
          "target": {
            "node": 0,
            "path": "translation"
          }
        },
        {
          "sampler": 1,
          "target": {
            "node": 0,
            "path": "rotation"
          }
        },
        {
          "sampler": 2,
          "target": {
            "node": 0,
            "path": "scale"
          }
        },
        {
          "sampler": 3,
          "target": {
            "node": 1,
            "path": "translation"
          }
        },
        {
          "sampler": 4,
          "target": {
            "node": 1,
            "path": "rotation"
          }
        },
        {
          "sampler": 5,
          "target": {
            "node": 1,
            "path": "scale"
          }
        }
      ],
      "samplers": [
        {
          "input": 6,
          "interpolation": "LINEAR",
          "output": 7
        },
        {
          "input": 8,
          "interpolation": "LINEAR",
          "output": 9
        },
        {
          "input": 10,
          "interpolation": "LINEAR",
          "output": 11
        },
        {
          "input": 12,
          "interpolation": "LINEAR",
          "output": 13
        },
        {
          "input": 14,
          "interpolation": "LINEAR",
          "output": 15
        },
        {
          "input": 16,
          "interpolation": "LINEAR",
          "output": 17
        }
      ],
      "name": "Happy Idle"
    }
  ],
  "buffers": [
    {
      "uri": "Character_Skeleton_Slave_01.bin",
      "byteLength": 540272
    }
  ],
  "bufferViews": [
    {
      "buffer": 0,
      "byteLength": 109860,
      "byteStride": 12,
      "target": 34962
    },
    {
      "buffer": 0,
      "byteOffset": 109860,
      "byteLength": 109860,
      "byteStride": 12,
      "target": 34962
    },
    {
      "buffer": 0,
      "byteOffset": 219720,
      "byteLength": 146480,
      "target": 34962
    },
    {
      "buffer": 0,
      "byteOffset": 366200,
      "byteLength": 73240,
      "target": 34962
    },
    {
      "buffer": 0,
      "byteOffset": 439440,
      "byteLength": 73240,
      "target": 34962
    },
    {
      "buffer": 0,
      "byteOffset": 512680,
      "byteLength": 24828,
      "target": 34963
    },
    {
      "buffer": 0,
      "byteOffset": 537508,
      "byteLength": 292
    },
    {
      "buffer": 0,
      "byteOffset": 537800,
      "byteLength": 876
    },
    {
      "buffer": 0,
      "byteOffset": 538676,
      "byteLength": 292
    },
    {
      "buffer": 0,
      "byteOffset": 538968,
      "byteLength": 1168
    },
    {
      "buffer": 0,
      "byteOffset": 540136,
      "byteLength": 8
    },
    {
      "buffer": 0,
      "byteOffset": 540144,
      "byteLength": 24
    },
    {
      "buffer": 0,
      "byteOffset": 540168,
      "byteLength": 8
    },
    {
      "buffer": 0,
      "byteOffset": 540176,
      "byteLength": 24
    },
    {
      "buffer": 0,
      "byteOffset": 540200,
      "byteLength": 8
    },
    {
      "buffer": 0,
      "byteOffset": 540208,
      "byteLength": 32
    },
    {
      "buffer": 0,
      "byteOffset": 540240,
      "byteLength": 8
    },
    {
      "buffer": 0,
      "byteOffset": 540248,
      "byteLength": 24
    }
  ],
  "images": [
    {
      "uri": "Dungeons_Texture_01.jpg",
      "name": "Dungeons_Texture_01"
    }
  ],
  "materials": [
    {
      "pbrMetallicRoughness": {
        "baseColorTexture": {
          "index": 0,
          "extensions": {
            "KHR_texture_transform": {}
          }
        },
        "metallicFactor": 0.0,
        "roughnessFactor": 0.79999999701976776
      },
      "name": "Dungeons_Material_Characters_01"
    }
  ],
  "meshes": [
    {
      "primitives": [
        {
          "attributes": {
            "POSITION": 0,
            "NORMAL": 1,
            "TANGENT": 2,
            "TEXCOORD_0": 3,
            "TEXCOORD_1": 4
          },
          "indices": 5,
          "material": 0
        }
      ],
      "name": "Character_Skeleton_Slave_01"
    }
  ],
  "nodes": [
    {
      "children": [
        1
      ],
      "name": "Character_Skeleton_Slave_01"
    },
    {
      "mesh": 0,
      "scale": [
        0.01,
        0.01,
        0.01
      ],
      "name": "Character_Skeleton_Slave_01"
    }
  ],
  "samplers": [
    {
      "minFilter": 9987
    }
  ],
  "textures": [
    {
      "sampler": 0,
      "source": 0,
      "name": "Dungeons_Texture_01"
    }
  ]
}